<svg width="160" height="72" viewBox="0 0 160 72" fill="none" xmlns="http://www.w3.org/2000/svg">
<g clip-path="url(#clip0_628_1579)">
<path fill-rule="evenodd" clip-rule="evenodd" d="M65.8141 52.3423C66.9045 52.3423 67.7878 53.2252 67.7878 54.3151C67.7878 55.405 66.9045 56.2879 65.8141 56.2879C56.7619 56.2879 48.5656 52.6194 42.6354 46.6919C36.7021 40.7614 33.035 32.569 33.035 23.5241C33.035 22.4342 33.9182 21.5513 35.0086 21.5513C36.099 21.5513 36.9823 22.4342 36.9823 23.5241C36.9823 31.4821 40.2109 38.6882 45.4284 43.9063C50.6398 49.1153 57.8492 52.3423 65.8141 52.3423Z" fill="#008FD7"/>
<path fill-rule="evenodd" clip-rule="evenodd" d="M65.8141 37.7871C61.8728 37.7871 58.3031 36.1887 55.7202 33.6071C53.1374 31.0255 51.5383 27.4574 51.5383 23.518C51.5383 22.4281 52.4216 21.5452 53.512 21.5452C54.6024 21.5452 55.4857 22.4281 55.4857 23.518C55.4857 26.3706 56.6431 28.9492 58.5102 30.8184C60.3803 32.6877 62.9632 33.8415 65.8141 33.8415C68.668 33.8415 71.2478 32.6846 73.1179 30.8184C74.9881 28.9492 76.1424 26.3675 76.1424 23.518C76.1424 22.4281 77.0257 21.5452 78.1161 21.5452C79.2065 21.5452 80.0898 22.4281 80.0898 23.518C80.0898 27.4574 78.4908 31.0255 75.9079 33.6071C73.3251 36.1887 69.7554 37.7871 65.8141 37.7871Z" fill="#F9B700"/>
<path fill-rule="evenodd" clip-rule="evenodd" d="M65.8141 43.0904C66.9045 43.0904 67.7878 43.9733 67.7878 45.0632C67.7878 46.1531 66.9045 47.0359 65.8141 47.0359C59.3173 47.0359 53.4359 44.4025 49.1778 40.1465C44.9197 35.8904 42.2851 30.0117 42.2851 23.518C42.2851 17.0243 44.9197 11.1455 49.1778 6.88947C53.4359 2.6334 59.3173 0 65.8141 0C66.9045 0 67.7878 0.882875 67.7878 1.97277C67.7878 3.06266 66.9045 3.94554 65.8141 3.94554C60.4047 3.94554 55.5101 6.13751 51.9678 9.67814C48.4255 13.2188 46.2325 18.1142 46.2325 23.518C46.2325 28.9248 48.4255 33.8172 51.9678 37.3578C55.5101 40.9015 60.4047 43.0904 65.8141 43.0904Z" fill="#98C000"/>
<path fill-rule="evenodd" clip-rule="evenodd" d="M143.939 63.6523L141.143 60.888C140.284 61.8104 139.553 62.191 138.472 62.191C137.485 62.191 136.724 61.8409 136.121 61.1102C135.484 60.3156 135.198 59.1709 135.198 57.4234C135.198 55.6759 135.484 54.5617 136.121 53.7671C136.724 53.0365 137.488 52.6863 138.472 52.6863C139.553 52.6863 140.284 53.0669 141.143 53.9894L143.942 51.1915C142.48 49.6663 140.763 48.9661 138.472 48.9661C135.164 48.9661 131.065 50.7136 131.065 57.4204C131.065 64.1272 135.167 65.9051 138.472 65.9051C140.76 65.9112 142.477 65.1775 143.939 63.6523Z" fill="white"/>
<path fill-rule="evenodd" clip-rule="evenodd" d="M123.456 59.6367C123.456 60.6535 123.298 61.3203 122.853 61.7343C122.122 62.4345 121.391 62.5289 120.246 62.5289C118.626 62.5289 117.861 61.7647 117.861 60.6231C117.861 59.448 118.686 58.7477 120.182 58.7477H123.456V59.6367ZM127.589 65.7407V54.8387C127.589 50.9602 125.174 48.9904 120.529 48.9904C117.764 48.9904 116.174 49.4989 114.55 51.2798L117.188 53.8554C118.047 52.869 118.778 52.4885 120.368 52.4885C122.561 52.4885 123.453 53.2831 123.453 55.0945V55.9195H119.542C115.695 55.9195 113.883 58.081 113.883 60.7175C113.883 62.1788 114.361 63.5153 115.251 64.4347C116.238 65.4211 117.605 65.896 119.478 65.896C121.385 65.896 122.436 65.418 123.548 64.3068V65.7377H127.589V65.7407Z" fill="white"/>
<path fill-rule="evenodd" clip-rule="evenodd" d="M111.818 63.6705L109.019 60.9062C108.16 61.8287 107.429 62.2092 106.348 62.2092C105.361 62.2092 104.6 61.8591 103.993 61.1284C103.357 60.3339 103.071 59.1892 103.071 57.4417C103.071 55.6942 103.357 54.5799 103.993 53.7854C104.596 53.0547 105.361 52.7046 106.348 52.7046C107.429 52.7046 108.16 53.0851 109.019 54.0076L111.818 51.2098C110.356 49.6846 108.638 48.9843 106.348 48.9843C103.04 48.9843 98.9404 50.7318 98.9404 57.4386C98.9404 64.1455 103.043 65.9234 106.348 65.9234C108.638 65.9264 110.356 65.1958 111.818 63.6705Z" fill="white"/>
<path fill-rule="evenodd" clip-rule="evenodd" d="M93.3848 42.3141C94.6763 42.3141 95.724 43.3614 95.724 44.6522C95.724 45.943 94.6763 46.9903 93.3848 46.9903C92.0934 46.9903 91.0456 45.943 91.0456 44.6522C91.0487 43.3614 92.0934 42.3141 93.3848 42.3141Z" fill="white"/>
<path fill-rule="evenodd" clip-rule="evenodd" d="M75.8135 49.6389V47.8275C75.8135 46.8746 76.2582 46.3327 77.245 46.3327H78.8654V42.8377H76.511C73.1393 42.8377 71.6773 45.2215 71.6773 47.5717V49.6389H69.9594V52.7868H71.6773V65.7224H75.8104V52.7868H81.5031V65.7224H85.6363V52.7868H91.3289V65.7224H95.4743V49.6389H85.6363V47.8275C85.6363 46.8746 86.0809 46.3327 87.0678 46.3327H88.6882V42.8377H86.3337C82.962 42.8377 81.5 45.2215 81.5 47.5717V49.6389H75.8135Z" fill="white"/>
<path fill-rule="evenodd" clip-rule="evenodd" d="M9.56996 56.9972C9.56996 59.1892 9.28366 61.3203 6.83482 61.3203C4.38598 61.3203 4.13318 59.1892 4.13318 56.9972C4.13318 54.8052 4.38903 52.7077 6.83482 52.7077C9.28366 52.7077 9.56996 54.8052 9.56996 56.9972ZM13.7062 65.1349V49.1792H9.69789V50.7379C8.55266 49.4654 7.40743 48.9904 5.65913 48.9904C4.03876 48.9904 2.60722 49.5293 1.68434 50.4518C0.127924 52.0074 0 54.105 0 56.9972C0 59.8894 0.127924 62.0174 1.68434 63.5762C2.60722 64.4986 4.00525 65.0375 5.62867 65.0375C7.24905 65.0375 8.49174 64.593 9.57301 63.3844V65.0679C9.57301 66.7515 8.71409 68.502 6.23479 68.502C4.83676 68.502 3.91388 68.1214 2.99099 67.2294L0.414231 69.8354C2.13207 71.4885 3.88037 71.997 6.42363 71.997C10.8736 72 13.7062 69.1078 13.7062 65.1349Z" fill="white"/>
<path fill-rule="evenodd" clip-rule="evenodd" d="M27.6895 55.889H21.3908C21.4212 55.1584 21.5187 54.7139 21.7715 54.1081C22.2162 53.1217 23.1391 52.391 24.5371 52.391C25.9352 52.391 26.858 53.1217 27.3027 54.1081C27.5616 54.7109 27.656 55.1584 27.6895 55.889ZM31.7588 58.7173V56.8724C31.7588 52.3271 29.1515 48.96 24.5402 48.96C20.2486 48.96 17.3216 52.0105 17.3216 57.4143C17.3216 64.1211 21.074 65.899 24.9849 65.899C27.9728 65.899 29.5962 64.9766 31.2806 63.293L28.7678 60.8453C27.717 61.8956 26.8276 62.401 25.0153 62.401C22.6944 62.401 21.3908 60.8453 21.3908 58.7142H31.7588V58.7173Z" fill="white"/>
<path fill-rule="evenodd" clip-rule="evenodd" d="M45.0446 57.4295C45.0446 59.1466 44.9502 60.6079 44.0913 61.4664C43.6131 61.9444 42.9796 62.197 42.1511 62.197C41.3257 62.197 40.7196 61.9413 40.2444 61.4664C39.3855 60.6079 39.2911 59.1466 39.2911 57.4295C39.2911 55.7125 39.3855 54.2816 40.2444 53.4261C40.7226 52.9482 41.3257 52.6955 42.1511 52.6955C42.9765 52.6955 43.6131 52.9512 44.0913 53.4261C44.9472 54.2847 45.0446 55.7155 45.0446 57.4295ZM49.1778 57.4295C49.1778 54.443 48.7971 52.5676 47.3016 51.0089C46.2843 49.9281 44.5999 48.9752 42.1511 48.9752C39.7023 48.9752 38.0484 49.9281 37.0311 51.0089C35.5356 52.5676 35.1549 54.4399 35.1549 57.4295C35.1549 60.4496 35.5356 62.3249 37.0311 63.8806C38.0484 64.9614 39.7023 65.9142 42.1511 65.9142C44.5999 65.9142 46.2843 64.9614 47.3016 63.8806C48.7971 62.3249 49.1778 60.4496 49.1778 57.4295Z" fill="white"/>
<path fill-rule="evenodd" clip-rule="evenodd" d="M57.1974 49.4776V47.0329H65.6009C60.8585 46.9903 56.4543 45.5472 52.778 43.0965V47.5017C54.179 48.2902 55.6563 48.9539 57.1974 49.4776Z" fill="white"/>
<path fill-rule="evenodd" clip-rule="evenodd" d="M67.6903 65.7224V61.7799H57.1974V56.2818H65.5674C61.026 56.2483 56.701 55.2923 52.778 53.5905V65.7224H67.6903Z" fill="white"/>
<path fill-rule="evenodd" clip-rule="evenodd" d="M155.623 55.8982H149.327C149.358 55.1675 149.455 54.723 149.708 54.1172C150.153 53.1308 151.076 52.4002 152.474 52.4002C153.872 52.4002 154.795 53.1308 155.239 54.1172C155.495 54.723 155.59 55.1675 155.623 55.8982ZM159.692 58.7264V56.8815C159.692 52.3362 157.085 48.9661 152.474 48.9661C148.182 48.9661 145.255 52.0166 145.255 57.4204C145.255 64.1272 149.008 65.9051 152.918 65.9051C155.906 65.9051 157.53 64.9827 159.214 63.2991L156.701 60.8514C155.651 61.8987 154.761 62.4102 152.949 62.4102C150.628 62.4102 149.324 60.8514 149.324 58.7234H159.692V58.7264Z" fill="white"/>
</g>
<defs>
<clipPath id="clip0_628_1579">
<rect width="159.692" height="72" fill="white"/>
</clipPath>
</defs>
</svg>
