<svg width="56" height="56" viewBox="0 0 56 56" fill="none" xmlns="http://www.w3.org/2000/svg">
<path opacity="0.2" d="M45.1391 29.8134C43.1987 28.6912 39.7884 28.1991 36.5203 28C39.7884 27.8009 43.1987 27.3088 45.1391 26.1866C45.9471 25.7332 46.6571 25.1239 47.2278 24.3941C47.7986 23.6643 48.2188 22.8284 48.4641 21.9349C48.7094 21.0415 48.7749 20.1082 48.6567 19.1892C48.5386 18.2703 48.2392 17.3839 47.7759 16.5815C47.3126 15.7792 46.6946 15.0768 45.9578 14.515C45.221 13.9533 44.38 13.5434 43.4835 13.3092C42.5871 13.075 41.6531 13.021 40.7357 13.1505C39.8183 13.28 38.9357 13.5903 38.1391 14.0634C36.1987 15.1834 34.0681 17.8872 32.2612 20.6259C33.7247 17.6903 35 14.4922 35 12.25C35 10.3935 34.2625 8.61301 32.9497 7.30025C31.637 5.9875 29.8565 5.25 28 5.25C26.1435 5.25 24.363 5.9875 23.0502 7.30025C21.7375 8.61301 21 10.3935 21 12.25C21 14.4922 22.2753 17.6903 23.7387 20.6194C21.9319 17.8872 19.8012 15.1834 17.8609 14.0569C17.0643 13.5837 16.1817 13.2734 15.2643 13.1439C14.3469 13.0145 13.4129 13.0684 12.5164 13.3026C11.62 13.5369 10.779 13.9467 10.0422 14.5085C9.30538 15.0702 8.68741 15.7726 8.22411 16.575C7.76081 17.3774 7.46141 18.2637 7.34327 19.1827C7.22513 20.1016 7.2906 21.0349 7.53588 21.9284C7.78116 22.8218 8.20137 23.6577 8.77214 24.3875C9.34292 25.1174 10.0529 25.7266 10.8609 26.18C12.8012 27.3022 16.2116 27.7944 19.4797 27.9934C16.2116 28.1925 12.8012 28.6847 10.8609 29.8069C10.0529 30.2602 9.34292 30.8695 8.77214 31.5993C8.20137 32.3292 7.78116 33.165 7.53588 34.0585C7.2906 34.952 7.22513 35.8852 7.34327 36.8042C7.46141 37.7232 7.76081 38.6095 8.22411 39.4119C8.68741 40.2143 9.30538 40.9167 10.0422 41.4784C10.779 42.0401 11.62 42.45 12.5164 42.6842C13.4129 42.9185 14.3469 42.9724 15.2643 42.8429C16.1817 42.7135 17.0643 42.4032 17.8609 41.93C19.8012 40.81 21.9319 38.1062 23.7387 35.3675C22.2753 38.3097 21 41.5078 21 43.75C21 45.6065 21.7375 47.387 23.0502 48.6997C24.363 50.0125 26.1435 50.75 28 50.75C29.8565 50.75 31.637 50.0125 32.9497 48.6997C34.2625 47.387 35 45.6065 35 43.75C35 41.5078 33.7247 38.3097 32.2612 35.3806C34.0681 38.1128 36.1987 40.8166 38.1391 41.9431C38.9357 42.4163 39.8183 42.7266 40.7357 42.8561C41.6531 42.9855 42.5871 42.9316 43.4835 42.6974C44.38 42.4631 45.221 42.0533 45.9578 41.4915C46.6946 40.9298 47.3126 40.2274 47.7759 39.425C48.2392 38.6226 48.5386 37.7363 48.6567 36.8173C48.7749 35.8984 48.7094 34.9651 48.4641 34.0716C48.2188 33.1782 47.7986 32.3423 47.2278 31.6125C46.6571 30.8826 45.9471 30.2734 45.1391 29.82V29.8134ZM34.0616 31.5C33.2122 32.9706 31.8571 34.0822 30.2489 34.6278C28.6407 35.1734 26.889 35.1158 25.3201 34.4656C23.7512 33.8155 22.4722 32.6171 21.7214 31.0939C20.9705 29.5707 20.799 27.8264 21.2388 26.1861C21.6786 24.5458 22.6997 23.1213 24.1119 22.178C25.5241 21.2348 27.2311 20.837 28.9148 21.059C30.5985 21.2809 32.1441 22.1073 33.2636 23.3843C34.3831 24.6613 35.0003 26.3018 35 28C35.0025 29.2292 34.6787 30.437 34.0616 31.5Z" fill="#1E2D78"/>
<path d="M46.0141 28.2975C45.8369 28.1947 45.6422 28.0963 45.4409 28C45.6422 27.9038 45.8369 27.8053 46.0141 27.7025C47.0172 27.1322 47.8976 26.369 48.6046 25.457C49.3117 24.545 49.8313 23.5022 50.1336 22.3886C50.436 21.2749 50.5151 20.1125 50.3663 18.9682C50.2176 17.8238 49.844 16.7202 49.267 15.7209C48.69 14.7216 47.921 13.8462 47.0044 13.1453C46.0877 12.4443 45.0415 11.9316 43.9258 11.6366C42.8102 11.3417 41.6473 11.2703 40.504 11.4267C39.3607 11.583 38.2596 11.9639 37.2641 12.5475C37.0869 12.6503 36.9031 12.7663 36.7216 12.8953C36.7391 12.6766 36.75 12.4578 36.75 12.2391C36.75 9.91843 35.8281 7.69283 34.1872 6.05189C32.5462 4.41095 30.3206 3.48907 28 3.48907C25.6794 3.48907 23.4538 4.41095 21.8128 6.05189C20.1719 7.69283 19.25 9.91843 19.25 12.2391C19.25 12.4447 19.25 12.6635 19.2784 12.8953C19.0969 12.7706 18.9131 12.6503 18.7359 12.5475C17.7404 11.9639 16.6393 11.583 15.496 11.4267C14.3527 11.2703 13.1898 11.3417 12.0742 11.6366C10.9585 11.9316 9.91228 12.4443 8.99561 13.1453C8.07895 13.8462 7.30999 14.7216 6.733 15.7209C6.15601 16.7202 5.7824 17.8238 5.63366 18.9682C5.48492 20.1125 5.564 21.2749 5.86635 22.3886C6.16869 23.5022 6.68833 24.545 7.39534 25.457C8.10236 26.369 8.98279 27.1322 9.98593 27.7025C10.1631 27.8053 10.3578 27.9038 10.5591 28C10.3578 28.0963 10.1631 28.1947 9.98593 28.2975C8.98279 28.8679 8.10236 29.631 7.39534 30.543C6.68833 31.455 6.16869 32.4978 5.86635 33.6115C5.564 34.7251 5.48492 35.8875 5.63366 37.0319C5.7824 38.1762 6.15601 39.2798 6.733 40.2791C7.30999 41.2785 8.07895 42.1538 8.99561 42.8548C9.91228 43.5557 10.9585 44.0684 12.0742 44.3634C13.1898 44.6583 14.3527 44.7297 15.496 44.5734C16.6393 44.417 17.7404 44.0361 18.7359 43.4525C18.9131 43.3497 19.0969 43.2338 19.2784 43.1047C19.2609 43.3235 19.25 43.5422 19.25 43.75C19.25 46.0707 20.1719 48.2963 21.8128 49.9372C23.4538 51.5781 25.6794 52.5 28 52.5C30.3206 52.5 32.5462 51.5781 34.1872 49.9372C35.8281 48.2963 36.75 46.0707 36.75 43.75C36.75 43.5444 36.7391 43.3256 36.7216 43.1047C36.9031 43.2294 37.0869 43.3497 37.2641 43.4525C38.5895 44.2204 40.0941 44.6248 41.6259 44.625C42.3956 44.624 43.1619 44.5225 43.9053 44.3231C45.5769 43.8751 47.0782 42.9414 48.2192 41.6402C49.3601 40.3389 50.0896 38.7285 50.3153 37.0127C50.541 35.2968 50.2529 33.5526 49.4873 32.0005C48.7216 30.4484 47.513 29.1583 46.0141 28.2931V28.2975ZM22.75 28C22.75 26.9617 23.0579 25.9466 23.6348 25.0833C24.2117 24.2199 25.0316 23.547 25.9909 23.1496C26.9502 22.7523 28.0058 22.6483 29.0242 22.8509C30.0426 23.0535 30.9781 23.5535 31.7123 24.2877C32.4465 25.0219 32.9465 25.9574 33.1491 26.9758C33.3517 27.9942 33.2477 29.0498 32.8504 30.0091C32.453 30.9684 31.7801 31.7884 30.9167 32.3652C30.0534 32.9421 29.0383 33.25 28 33.25C26.6076 33.25 25.2723 32.6969 24.2877 31.7123C23.3031 30.7278 22.75 29.3924 22.75 28ZM39.0141 15.5772C39.6111 15.2325 40.2703 15.0087 40.9538 14.9188C41.6374 14.8288 42.332 14.8743 42.9979 15.0527C43.6639 15.2312 44.2882 15.5391 44.8351 15.9588C45.3821 16.3785 45.8411 16.9018 46.1858 17.4989C46.5305 18.096 46.7542 18.7551 46.8442 19.4387C46.9342 20.1222 46.8887 20.8168 46.7102 21.4828C46.5318 22.1487 46.2239 22.773 45.8042 23.32C45.3845 23.867 44.8611 24.3259 44.2641 24.6706C42.8925 25.4647 40.1931 26.0116 36.5728 26.2435C36.1909 24.3914 35.2193 22.7129 33.8034 21.4594C35.8159 18.4363 37.6425 16.3713 39.0141 15.5772ZM28 7.00001C29.3924 7.00001 30.7277 7.55314 31.7123 8.5377C32.6969 9.52227 33.25 10.8576 33.25 12.25C33.25 13.8338 32.375 16.4478 30.765 19.7006C28.9706 19.0998 27.0294 19.0998 25.235 19.7006C23.625 16.4478 22.75 13.8338 22.75 12.25C22.75 10.8576 23.3031 9.52227 24.2877 8.5377C25.2723 7.55314 26.6076 7.00001 28 7.00001ZM9.81312 17.5C10.1577 16.9027 10.6167 16.3791 11.1637 15.9592C11.7107 15.5393 12.3351 15.2312 13.0012 15.0527C13.6673 14.8741 14.362 14.8285 15.0457 14.9185C15.7295 15.0085 16.3887 15.2323 16.9859 15.5772C18.3575 16.3713 20.1841 18.4363 22.1966 21.4594C20.7795 22.7146 19.8078 24.3956 19.4272 26.25C15.8069 26.0181 13.1075 25.4713 11.7359 24.6794C11.1377 24.3348 10.6134 23.8755 10.1929 23.328C9.7724 22.7805 9.46403 22.1554 9.28542 21.4885C9.10682 20.8217 9.0615 20.1261 9.15205 19.4417C9.2426 18.7573 9.46724 18.0975 9.81312 17.5ZM16.9859 40.4228C15.7801 41.119 14.347 41.3077 13.0021 40.9473C11.6571 40.5869 10.5104 39.707 9.81422 38.5011C9.11802 37.2952 8.92937 35.8622 9.28976 34.5172C9.65015 33.1723 10.5301 32.0256 11.7359 31.3294C13.1075 30.5353 15.8069 29.9885 19.4272 29.7566C19.8091 31.6086 20.7807 33.2871 22.1966 34.5406C20.1841 37.5638 18.3575 39.6288 16.9859 40.4228ZM28 49C26.6076 49 25.2723 48.4469 24.2877 47.4623C23.3031 46.4778 22.75 45.1424 22.75 43.75C22.75 42.1663 23.625 39.5522 25.235 36.2994C27.0294 36.9002 28.9706 36.9002 30.765 36.2994C32.375 39.5522 33.25 42.1663 33.25 43.75C33.25 45.1424 32.6969 46.4778 31.7123 47.4623C30.7277 48.4469 29.3924 49 28 49ZM46.1869 38.5C45.8423 39.0973 45.3833 39.6209 44.8363 40.0408C44.2893 40.4608 43.6649 40.7688 42.9988 40.9474C42.3327 41.1259 41.638 41.1715 40.9543 41.0815C40.2705 40.9915 39.6113 40.7677 39.0141 40.4228C37.6425 39.6288 35.8159 37.5638 33.8034 34.5406C35.2205 33.2854 36.1922 31.6044 36.5728 29.75C40.1931 29.9819 42.8925 30.5288 44.2641 31.3206C44.8623 31.6653 45.3866 32.1245 45.8071 32.672C46.2276 33.2196 46.536 33.8446 46.7146 34.5115C46.8932 35.1784 46.9385 35.8739 46.8479 36.5583C46.7574 37.2427 46.5328 37.9025 46.1869 38.5Z" fill="#1E2D78"/>
</svg>
