<svg width="56" height="24" viewBox="0 0 56 24" fill="none" xmlns="http://www.w3.org/2000/svg">
<g opacity="0.5" clip-path="url(#clip0_631_1834)">
<path d="M40.1339 22.6498C39.2536 21.7629 38.8123 20.5269 38.8123 18.9418V8.03732H35.0011V5.43359C36.2854 5.43359 37.2206 5.30406 37.8134 5.0472C38.404 4.79034 38.8123 4.28979 39.0406 3.54775C39.2667 2.80571 39.3809 1.62239 39.3809 0H42.079V5.43359H46.3425V8.03732H42.079V18.6037C42.079 19.4841 42.3139 20.1668 42.786 20.652C43.258 21.1372 43.8771 21.3787 44.6454 21.3787H46.3425V23.9824H43.7563C42.2217 23.9824 41.0143 23.539 40.1339 22.652V22.6498Z" fill="white"/>
<path d="M27.2931 5.4336L23.4929 17.1702L18.9265 4.58398H14.7376L10.1734 17.2075L6.17343 4.58398H0.568604L7.22942 24H12.3227L16.8518 11.1899L21.3414 24H26.3974L32.876 5.4336H27.2931Z" fill="white"/>
<path d="M56.0022 22.7728V20.3579C56.0022 19.691 55.4616 19.1504 54.7947 19.1504H52.3798C51.7129 19.1504 51.1723 19.691 51.1723 20.3579V22.7728C51.1723 23.4396 51.7129 23.9802 52.3798 23.9802H54.7947C55.4616 23.9802 56.0022 23.4396 56.0022 22.7728Z" fill="white"/>
</g>
<defs>
<clipPath id="clip0_631_1834">
<rect width="55.4314" height="24" fill="white" transform="translate(0.568604)"/>
</clipPath>
</defs>
</svg>
